<?xml version="1.0" standalone="no"?><!DOCTYPE svg PUBLIC "-//W3C//DTD SVG 1.1//EN" "http://www.w3.org/Graphics/SVG/1.1/DTD/svg11.dtd"><svg t="1757273755950" class="icon" viewBox="0 0 1024 1024" version="1.1" xmlns="http://www.w3.org/2000/svg" p-id="2668" xmlns:xlink="http://www.w3.org/1999/xlink" width="200" height="200"><path d="M512 1.694429S125.67016 363.172642 125.67016 663.651407C125.67016 877.149476 298.501931 1016.657474 512 1016.657474s386.32984-139.507998 386.32984-353.006067C897.76503 363.172642 512 1.694429 512 1.694429zM379.834528 503.24545c-20.333149 49.703254-31.629344 96.01765-33.888582 138.378378-2.259239 44.055157 4.518478 85.286266 19.76834 123.693326v0.56481c6.212907 15.249862-5.083287 31.629344-21.462769 31.064534l-11.296194-0.56481c-9.036955-0.56481-16.944291-6.212907-20.33315-14.685053-16.379482-42.925538-24.286817-90.369553-22.027578-142.332046 2.259239-50.268064 15.814672-101.665747 36.147821-153.063431 3.388858-9.036955 12.425814-14.685052 22.027578-14.120242l10.731385 0.564809c15.814672 0 25.981247 16.379482 20.333149 30.499725z" fill="#1296db" p-id="2669"></path></svg>